<?xml version="1.0" encoding="UTF-8"?>
<svg version="1.1" xmlns="http://www.w3.org/2000/svg" width="1280" height="1280">
<path d="M0 0 C1.3677857 -0.00258799 2.73557065 -0.00560235 4.10335457 -0.0090034 C7.84306668 -0.01702597 11.58275955 -0.01886031 15.32247925 -0.01960087 C19.3636272 -0.02145978 23.40476536 -0.02901137 27.44590759 -0.03573608 C36.27487984 -0.04928707 45.10384752 -0.05533933 53.93282843 -0.05974674 C59.45330876 -0.06251515 64.97378735 -0.06675363 70.49426651 -0.07125092 C85.80010048 -0.08344031 101.10593306 -0.09373965 116.41177177 -0.09712601 C117.39039055 -0.09734557 118.36900933 -0.09756514 119.37728322 -0.09779136 C120.35815428 -0.09800964 121.33902533 -0.09822791 122.34961975 -0.09845281 C124.33701253 -0.09889626 126.32440531 -0.09934282 128.3117981 -0.09979248 C129.2975994 -0.10001391 130.28340071 -0.10023534 131.29907478 -0.10046348 C147.2547751 -0.10440731 163.21042964 -0.12185012 179.16611229 -0.145152 C195.57540084 -0.16892143 211.98466648 -0.18133043 228.39397252 -0.18249393 C237.59586338 -0.18340765 246.7976946 -0.18908315 255.99956894 -0.20731354 C263.83881054 -0.22279032 271.67797406 -0.22779071 279.51722805 -0.21957543 C283.50947858 -0.2156953 287.50157227 -0.21646767 291.49380302 -0.23063278 C307.34244377 -0.28366385 322.83046636 -0.19054459 338.40359497 3.14044189 C339.42456709 3.35487316 340.44553921 3.56930443 341.49744987 3.79023361 C343.73834875 4.28330177 345.94215273 4.84236228 348.15359497 5.45294189 C348.9296106 5.66168945 349.70562622 5.87043701 350.50515747 6.08551025 C356.89216837 7.86615131 362.96603616 10.17126721 369.06765747 12.75372314 C371.95069453 13.95217532 374.80832861 14.94049184 377.77859497 15.89044189 C390.15746631 20.31805609 401.69537094 28.64987484 412.40359497 36.14044189 C413.17058716 36.66766846 413.93757935 37.19489502 414.72781372 37.73809814 C415.28082153 38.20087158 415.83382935 38.66364502 416.40359497 39.14044189 C416.40359497 39.80044189 416.40359497 40.46044189 416.40359497 41.14044189 C417.23310669 41.51169189 417.23310669 41.51169189 418.07937622 41.89044189 C426.96084469 46.66702998 433.99067918 54.52079464 440.40359497 62.14044189 C441.14351685 63.00540283 441.88343872 63.87036377 442.64578247 64.76153564 C461.64617572 87.41079334 474.93819205 113.30284673 481.40359497 142.14044189 C481.58420691 142.93607072 481.76481886 143.73169954 481.95090389 144.55143833 C485.68952139 161.59292342 485.98497232 178.44385154 485.92649364 195.79469466 C485.91730487 199.84251049 485.93148011 203.89026225 485.94241333 207.93806458 C485.9600582 215.83482839 485.9564219 223.73143883 485.94476277 231.62820828 C485.93567282 238.05481975 485.93452826 244.48138869 485.93885803 250.90800476 C485.93947096 251.82799388 485.9400839 252.747983 485.9407154 253.69585058 C485.9419945 255.56567849 485.94329136 257.43550639 485.94460577 259.30533427 C485.95597045 276.77618697 485.94296277 294.24695527 485.9214043 311.71779412 C485.90353709 326.65901189 485.90664236 341.60010528 485.92507935 356.5413208 C485.94655912 373.95616271 485.9548722 391.37093093 485.94263029 408.78578424 C485.9413563 410.64814916 485.94009881 412.51051409 485.93885803 414.37287903 C485.93824093 415.28883487 485.93762383 416.20479072 485.93698803 417.1485028 C485.93355637 423.55602591 485.93931591 429.96350168 485.94877625 436.37101746 C485.96007704 444.19593563 485.95678853 452.02069363 485.93565327 459.84559381 C485.9252502 463.82631626 485.9208334 467.80677318 485.93424988 471.78749275 C485.9881599 489.24585672 485.28615331 506.03705851 481.40359497 523.14044189 C481.20942018 524.00651849 481.01524538 524.87259508 480.8151865 525.76491642 C471.1911922 568.13188386 444.33197759 605.69700447 409.40359497 631.14044189 C408.83479614 631.55890381 408.26599731 631.97736572 407.67996216 632.4085083 C396.68216707 640.40265147 384.72867048 646.46010769 372.40359497 652.14044189 C371.71217407 652.46029053 371.02075317 652.78013916 370.30838013 653.10968018 C350.43214393 662.04137399 327.42277012 665.29578977 305.80718994 665.28088379 C304.43940424 665.28347178 303.07161929 665.28648614 301.70383537 665.28988719 C297.96412326 665.29790976 294.22443039 665.2997441 290.48471069 665.30048466 C286.44356274 665.30234357 282.40242458 665.30989516 278.36128235 665.31661987 C269.53231011 665.33017086 260.70334242 665.33622311 251.87436152 665.34063053 C246.35388118 665.34339894 240.83340259 665.34763742 235.31292343 665.3521347 C220.00708946 665.3643241 204.70125688 665.37462344 189.39541817 665.3780098 C188.41679939 665.37822936 187.43818061 665.37844893 186.42990672 665.37867515 C185.44903567 665.37889343 184.46816461 665.3791117 183.4575702 665.3793366 C181.47017741 665.37978005 179.48278463 665.38022661 177.49539185 665.38067627 C176.50959054 665.3808977 175.52378923 665.38111913 174.50811516 665.38134727 C158.55241484 665.3852911 142.5967603 665.40273391 126.64107765 665.42603579 C110.2317891 665.44980522 93.82252346 665.46221422 77.41321743 665.46337771 C68.21132656 665.46429144 59.00949534 665.46996694 49.807621 665.48819733 C41.9683794 665.5036741 34.12921588 665.5086745 26.28996189 665.50045922 C22.29771136 665.49657909 18.30561768 665.49735146 14.31338692 665.51151657 C-1.54357092 665.56457532 -17.0103365 665.43451093 -32.59640503 662.14044189 C-33.68453428 661.92597538 -34.77266354 661.71150887 -35.8937664 661.49054337 C-47.26941772 659.21116542 -58.05924791 656.02459657 -68.59640503 651.14044189 C-69.40658081 650.77209229 -70.21675659 650.40374268 -71.05148315 650.02423096 C-89.35660784 641.61249412 -106.03224348 631.14346237 -120.59640503 617.14044189 C-122.51248581 615.45227667 -124.42917269 613.76479919 -126.34640503 612.07794189 C-131.41682743 607.46716119 -136.39038407 602.75850476 -138.59640503 596.14044189 C-139.58640503 595.81044189 -140.57640503 595.48044189 -141.59640503 595.14044189 C-157.28478944 576.85087457 -167.02109072 552.63052073 -173.78390503 529.82794189 C-174.02181763 529.04797852 -174.25973022 528.26801514 -174.50485229 527.4644165 C-179.93112219 508.49052776 -180.03763906 489.44663709 -179.98857903 469.89181542 C-179.98171286 465.83311016 -179.99230675 461.77444165 -180.0005188 457.71574402 C-180.01377864 449.79038502 -180.01101325 441.8651118 -180.00228088 433.9397496 C-179.99547397 427.49203728 -179.99460052 421.0443488 -179.99785233 414.59663391 C-179.99854187 413.21410495 -179.99854187 413.21410495 -179.99924535 411.80364612 C-180.00020464 409.93058915 -180.00117728 408.05753219 -180.00216313 406.18447524 C-180.01069432 388.66799409 -180.00091868 371.15156023 -179.98476203 353.63508683 C-179.97136092 338.64254481 -179.97368966 323.6500725 -179.98751831 308.65753174 C-180.00361441 291.19881848 -180.00987056 273.74014655 -180.00068152 256.28142691 C-179.99972599 254.41570124 -179.99878287 252.54997556 -179.99785233 250.68424988 C-179.9973895 249.76655124 -179.99692667 248.84885259 -179.99644982 247.9033449 C-179.99387199 241.47195546 -179.99820472 235.04059249 -180.00529099 228.60920715 C-180.01375114 220.75921719 -180.01133179 212.90931708 -179.99544875 205.05933726 C-179.98762627 201.06297533 -179.98436996 197.06676259 -179.99439621 193.07040215 C-180.03934357 173.54219649 -179.6162897 154.62618997 -173.90890503 135.76544189 C-173.65689331 134.91095459 -173.40488159 134.05646729 -173.14523315 133.17608643 C-168.9654467 119.37523729 -164.18999861 105.46011819 -156.59640503 93.14044189 C-155.86036112 91.90107634 -155.12471627 90.66147374 -154.38937378 89.42169189 C-143.27899918 70.93863705 -129.68729058 54.37573189 -112.59640503 41.14044189 C-111.52422729 40.25437256 -111.52422729 40.25437256 -110.4303894 39.35040283 C-104.35759265 34.36186234 -98.07761781 30.06491236 -91.34640503 26.01544189 C-90.32989868 25.40362061 -89.31339233 24.79179932 -88.26608276 24.16143799 C-80.89751759 19.78996669 -73.6925481 15.99292915 -65.59640503 13.14044189 C-64.73466675 12.8291333 -63.87292847 12.51782471 -62.9850769 12.19708252 C-42.09113135 4.70786061 -22.25295959 -0.01534552 0 0 Z " fill="#F33935" transform="translate(485.5964050292969,305.85955810546875)"/>
<path d="M0 0 C1.3677857 -0.00258799 2.73557065 -0.00560235 4.10335457 -0.0090034 C7.84306668 -0.01702597 11.58275955 -0.01886031 15.32247925 -0.01960087 C19.3636272 -0.02145978 23.40476536 -0.02901137 27.44590759 -0.03573608 C36.27487984 -0.04928707 45.10384752 -0.05533933 53.93282843 -0.05974674 C59.45330876 -0.06251515 64.97378735 -0.06675363 70.49426651 -0.07125092 C85.80010048 -0.08344031 101.10593306 -0.09373965 116.41177177 -0.09712601 C117.39039055 -0.09734557 118.36900933 -0.09756514 119.37728322 -0.09779136 C120.35815428 -0.09800964 121.33902533 -0.09822791 122.34961975 -0.09845281 C124.33701253 -0.09889626 126.32440531 -0.09934282 128.3117981 -0.09979248 C129.2975994 -0.10001391 130.28340071 -0.10023534 131.29907478 -0.10046348 C147.2547751 -0.10440731 163.21042964 -0.12185012 179.16611229 -0.145152 C195.57540084 -0.16892143 211.98466648 -0.18133043 228.39397252 -0.18249393 C237.59586338 -0.18340765 246.7976946 -0.18908315 255.99956894 -0.20731354 C263.83881054 -0.22279032 271.67797406 -0.22779071 279.51722805 -0.21957543 C283.50947858 -0.2156953 287.50157227 -0.21646767 291.49380302 -0.23063278 C307.34244377 -0.28366385 322.83046636 -0.19054459 338.40359497 3.14044189 C339.42456709 3.35487316 340.44553921 3.56930443 341.49744987 3.79023361 C343.73834875 4.28330177 345.94215273 4.84236228 348.15359497 5.45294189 C348.9296106 5.66168945 349.70562622 5.87043701 350.50515747 6.08551025 C356.89216837 7.86615131 362.96603616 10.17126721 369.06765747 12.75372314 C371.95069453 13.95217532 374.80832861 14.94049184 377.77859497 15.89044189 C390.15746631 20.31805609 401.69537094 28.64987484 412.40359497 36.14044189 C413.17058716 36.66766846 413.93757935 37.19489502 414.72781372 37.73809814 C415.28082153 38.20087158 415.83382935 38.66364502 416.40359497 39.14044189 C416.40359497 39.80044189 416.40359497 40.46044189 416.40359497 41.14044189 C417.23310669 41.51169189 417.23310669 41.51169189 418.07937622 41.89044189 C426.96084469 46.66702998 433.99067918 54.52079464 440.40359497 62.14044189 C441.14351685 63.00540283 441.88343872 63.87036377 442.64578247 64.76153564 C461.64617572 87.41079334 474.93819205 113.30284673 481.40359497 142.14044189 C481.58420691 142.93607072 481.76481886 143.73169954 481.95090389 144.55143833 C485.68952139 161.59292342 485.98497232 178.44385154 485.92649364 195.79469466 C485.91730487 199.84251049 485.93148011 203.89026225 485.94241333 207.93806458 C485.9600582 215.83482839 485.9564219 223.73143883 485.94476277 231.62820828 C485.93567282 238.05481975 485.93452826 244.48138869 485.93885803 250.90800476 C485.93947096 251.82799388 485.9400839 252.747983 485.9407154 253.69585058 C485.9419945 255.56567849 485.94329136 257.43550639 485.94460577 259.30533427 C485.95597045 276.77618697 485.94296277 294.24695527 485.9214043 311.71779412 C485.90353709 326.65901189 485.90664236 341.60010528 485.92507935 356.5413208 C485.94655912 373.95616271 485.9548722 391.37093093 485.94263029 408.78578424 C485.9413563 410.64814916 485.94009881 412.51051409 485.93885803 414.37287903 C485.93824093 415.28883487 485.93762383 416.20479072 485.93698803 417.1485028 C485.93355637 423.55602591 485.93931591 429.96350168 485.94877625 436.37101746 C485.96007704 444.19593563 485.95678853 452.02069363 485.93565327 459.84559381 C485.9252502 463.82631626 485.9208334 467.80677318 485.93424988 471.78749275 C485.9881599 489.24585672 485.28615331 506.03705851 481.40359497 523.14044189 C481.20942018 524.00651849 481.01524538 524.87259508 480.8151865 525.76491642 C471.1911922 568.13188386 444.33197759 605.69700447 409.40359497 631.14044189 C408.83479614 631.55890381 408.26599731 631.97736572 407.67996216 632.4085083 C396.68216707 640.40265147 384.72867048 646.46010769 372.40359497 652.14044189 C371.71217407 652.46029053 371.02075317 652.78013916 370.30838013 653.10968018 C350.43214393 662.04137399 327.42277012 665.29578977 305.80718994 665.28088379 C304.43940424 665.28347178 303.07161929 665.28648614 301.70383537 665.28988719 C297.96412326 665.29790976 294.22443039 665.2997441 290.48471069 665.30048466 C286.44356274 665.30234357 282.40242458 665.30989516 278.36128235 665.31661987 C269.53231011 665.33017086 260.70334242 665.33622311 251.87436152 665.34063053 C246.35388118 665.34339894 240.83340259 665.34763742 235.31292343 665.3521347 C220.00708946 665.3643241 204.70125688 665.37462344 189.39541817 665.3780098 C188.41679939 665.37822936 187.43818061 665.37844893 186.42990672 665.37867515 C185.44903567 665.37889343 184.46816461 665.3791117 183.4575702 665.3793366 C181.47017741 665.37978005 179.48278463 665.38022661 177.49539185 665.38067627 C176.50959054 665.3808977 175.52378923 665.38111913 174.50811516 665.38134727 C158.55241484 665.3852911 142.5967603 665.40273391 126.64107765 665.42603579 C110.2317891 665.44980522 93.82252346 665.46221422 77.41321743 665.46337771 C68.21132656 665.46429144 59.00949534 665.46996694 49.807621 665.48819733 C41.9683794 665.5036741 34.12921588 665.5086745 26.28996189 665.50045922 C22.29771136 665.49657909 18.30561768 665.49735146 14.31338692 665.51151657 C-1.54357092 665.56457532 -17.0103365 665.43451093 -32.59640503 662.14044189 C-33.68453428 661.92597538 -34.77266354 661.71150887 -35.8937664 661.49054337 C-47.26941772 659.21116542 -58.05924791 656.02459657 -68.59640503 651.14044189 C-69.40658081 650.77209229 -70.21675659 650.40374268 -71.05148315 650.02423096 C-89.35660784 641.61249412 -106.03224348 631.14346237 -120.59640503 617.14044189 C-122.51248581 615.45227667 -124.42917269 613.76479919 -126.34640503 612.07794189 C-131.41682743 607.46716119 -136.39038407 602.75850476 -138.59640503 596.14044189 C-139.58640503 595.81044189 -140.57640503 595.48044189 -141.59640503 595.14044189 C-157.28478944 576.85087457 -167.02109072 552.63052073 -173.78390503 529.82794189 C-174.02181763 529.04797852 -174.25973022 528.26801514 -174.50485229 527.4644165 C-179.93112219 508.49052776 -180.03763906 489.44663709 -179.98857903 469.89181542 C-179.98171286 465.83311016 -179.99230675 461.77444165 -180.0005188 457.71574402 C-180.01377864 449.79038502 -180.01101325 441.8651118 -180.00228088 433.9397496 C-179.99547397 427.49203728 -179.99460052 421.0443488 -179.99785233 414.59663391 C-179.99854187 413.21410495 -179.99854187 413.21410495 -179.99924535 411.80364612 C-180.00020464 409.93058915 -180.00117728 408.05753219 -180.00216313 406.18447524 C-180.01069432 388.66799409 -180.00091868 371.15156023 -179.98476203 353.63508683 C-179.97136092 338.64254481 -179.97368966 323.6500725 -179.98751831 308.65753174 C-180.00361441 291.19881848 -180.00987056 273.74014655 -180.00068152 256.28142691 C-179.99972599 254.41570124 -179.99878287 252.54997556 -179.99785233 250.68424988 C-179.9973895 249.76655124 -179.99692667 248.84885259 -179.99644982 247.9033449 C-179.99387199 241.47195546 -179.99820472 235.04059249 -180.00529099 228.60920715 C-180.01375114 220.75921719 -180.01133179 212.90931708 -179.99544875 205.05933726 C-179.98762627 201.06297533 -179.98436996 197.06676259 -179.99439621 193.07040215 C-180.03934357 173.54219649 -179.6162897 154.62618997 -173.90890503 135.76544189 C-173.65689331 134.91095459 -173.40488159 134.05646729 -173.14523315 133.17608643 C-168.9654467 119.37523729 -164.18999861 105.46011819 -156.59640503 93.14044189 C-155.86036112 91.90107634 -155.12471627 90.66147374 -154.38937378 89.42169189 C-143.27899918 70.93863705 -129.68729058 54.37573189 -112.59640503 41.14044189 C-111.52422729 40.25437256 -111.52422729 40.25437256 -110.4303894 39.35040283 C-104.35759265 34.36186234 -98.07761781 30.06491236 -91.34640503 26.01544189 C-90.32989868 25.40362061 -89.31339233 24.79179932 -88.26608276 24.16143799 C-80.89751759 19.78996669 -73.6925481 15.99292915 -65.59640503 13.14044189 C-64.73466675 12.8291333 -63.87292847 12.51782471 -62.9850769 12.19708252 C-42.09113135 4.70786061 -22.25295959 -0.01534552 0 0 Z M-78.59640503 87.14044189 C-79.41367065 87.82364502 -80.23093628 88.50684814 -81.07296753 89.21075439 C-99.12819691 104.74398348 -113.44745918 125.79655813 -121.59640503 148.14044189 C-122.01921753 149.24387939 -122.44203003 150.34731689 -122.87765503 151.48419189 C-125.19632806 157.6852942 -127.14200195 163.64238509 -128.09248829 170.20102882 C-128.59640503 173.14044189 -128.59640503 173.14044189 -129.32501507 175.80585289 C-132.63613164 188.25146298 -132.00930171 200.93344968 -131.96871948 213.7131958 C-131.97115065 216.39886989 -131.97475783 219.08451926 -131.9797821 221.77018738 C-131.98922387 228.28419872 -131.98270849 234.7980985 -131.97051916 241.3121015 C-131.95680785 248.92771229 -131.95854541 256.54329735 -131.96065249 264.15891735 C-131.96383645 277.77452632 -131.95221494 291.39008286 -131.93258667 305.00567627 C-131.91363778 318.15380454 -131.90648615 331.30187126 -131.91207886 344.45001221 C-131.9181724 358.81775792 -131.91789071 373.18547663 -131.90659302 387.55322015 C-131.90538598 389.09368094 -131.90418 390.63414172 -131.90297508 392.17460251 C-131.90237154 392.93219128 -131.901768 393.68978006 -131.90114618 394.47032607 C-131.8973048 399.74976832 -131.89764599 405.02920038 -131.89956093 410.30864334 C-131.90171022 416.77399166 -131.89625813 423.23928677 -131.88194738 429.70462026 C-131.87482856 432.98914575 -131.87162495 436.2735815 -131.87519073 439.55811501 C-131.88741607 452.852235 -131.61295293 466.06710068 -130.68861389 479.33242798 C-130.60910754 480.48062063 -130.52960118 481.62881328 -130.44768554 482.81179965 C-129.31600604 497.56445184 -125.60752059 510.62647548 -119.59640503 524.14044189 C-119.2971814 524.82638428 -118.99795776 525.51232666 -118.68966675 526.21905518 C-112.19060726 541.02827687 -104.23716806 553.88968516 -93.59640503 566.14044189 C-92.86550659 566.99380127 -92.13460815 567.84716064 -91.38156128 568.72637939 C-78.11990667 583.87589696 -62.3460397 594.89365243 -44.59640503 604.14044189 C-43.65861206 604.62988281 -43.65861206 604.62988281 -42.70187378 605.12921143 C-23.00177579 615.24365647 -0.89115308 620.30562284 21.19828796 620.27415466 C22.37060296 620.27642022 23.54291795 620.27868578 24.75075763 620.28101999 C27.98738761 620.28623768 31.22398246 620.28700786 34.46061528 620.28582561 C37.95841244 620.28562085 41.45620143 620.29114762 44.95399475 620.29588318 C51.80131601 620.30417486 58.64862866 620.30693737 65.49595452 620.30749556 C71.0662886 620.30797155 76.63661986 620.31003046 82.20695305 620.31319618 C98.02091254 620.32199977 113.83486525 620.32661618 129.6488272 620.32586571 C130.50061785 620.32582575 131.3524085 620.3257858 132.23001099 620.32574463 C133.08284937 620.32570375 133.93568776 620.32566287 134.81436973 620.32562075 C148.62270643 620.32521466 162.4310158 620.33477546 176.2393446 620.348883 C190.43827806 620.36327436 204.63719822 620.37015162 218.83613914 620.36928922 C226.79935131 620.36895814 234.76253486 620.37166602 242.72574043 620.38246727 C249.5085329 620.3916088 256.29128378 620.39371781 263.07407976 620.38695785 C266.52910236 620.38371059 269.98404536 620.38357027 273.43906021 620.3923111 C290.03191986 620.42659604 305.93367176 620.29480703 322.02859497 615.82794189 C322.83216431 615.6092041 323.63573364 615.39046631 324.46365356 615.1651001 C331.30156053 613.2568629 337.88474447 610.96191821 344.40359497 608.14044189 C345.03410767 607.87425049 345.66462036 607.60805908 346.3142395 607.33380127 C386.21735294 590.33252283 415.14257492 557.86595953 431.2673645 518.00518799 C439.63290327 496.43246235 440.99740639 474.44729936 440.88943481 451.53009033 C440.89158661 448.84145889 440.89531495 446.15287087 440.90093994 443.46424866 C440.91091499 436.97783751 440.89987861 430.49163376 440.88123934 424.00524846 C440.86023356 416.41575187 440.86061802 408.82629739 440.8615845 401.23677722 C440.86258122 387.671582 440.84438907 374.10648175 440.81521606 360.5413208 C440.78707301 347.44787872 440.77287403 334.35452012 440.77420044 321.26104736 C440.77432031 320.05191349 440.77432031 320.05191349 440.7744426 318.81835267 C440.77456366 317.61108999 440.77456366 317.61108999 440.77468717 316.37943816 C440.77607581 301.37722758 440.76423311 286.37505172 440.74638074 271.37285249 C440.7404092 266.11237484 440.73822897 260.8519037 440.73731613 255.59142303 C440.73593512 249.15663537 440.72677909 242.72190628 440.70865051 236.28714338 C440.69957355 233.01888475 440.69435703 229.75071216 440.69583893 226.48243904 C440.69951356 213.42688698 440.43562512 200.45066041 439.49481201 187.42541504 C439.41536547 186.31862168 439.33591893 185.21182832 439.25406492 184.07149577 C438.56501787 175.42639579 437.12007674 167.40605254 434.40359497 159.14044189 C434.19218872 158.49639404 433.98078247 157.85234619 433.76296997 157.18878174 C420.0933262 116.38847146 391.53117875 83.47174195 353.25125122 63.98419189 C332.68355473 53.90728243 310.40183532 47.99693363 287.52433777 47.98654175 C286.34274423 47.98215949 285.16115068 47.97777724 283.94375128 47.97326219 C280.68082767 47.96225306 277.41793102 47.9556671 274.15499318 47.95108104 C270.62836894 47.94509365 267.10176202 47.93349141 263.57514954 47.92279053 C255.06364722 47.89833171 246.55213921 47.88364572 238.04061261 47.87073046 C235.63164851 47.86701272 233.22268496 47.86303995 230.81372142 47.85897779 C215.81769719 47.83372732 200.82167192 47.81169898 185.82563114 47.79924965 C182.35625772 47.79632049 178.88688433 47.79335875 175.41751099 47.79034424 C174.55533325 47.78959819 173.69315551 47.78885214 172.80485117 47.78808348 C158.87388852 47.77546091 144.9430544 47.74227644 131.01215167 47.70054241 C116.67078951 47.65793544 102.32949278 47.63453282 87.98806757 47.62932909 C79.95180184 47.62593533 71.91573666 47.61442402 63.87953377 47.58122635 C57.02744145 47.55296497 50.17559081 47.54233879 43.32344479 47.55342181 C39.83866522 47.55854355 36.35438954 47.55615685 32.86968613 47.53095627 C-9.43527419 47.27452059 -46.4783313 59.37066122 -78.59640503 87.14044189 Z " fill="#252323" transform="translate(485.5964050292969,305.85955810546875)"/>
<path d="M0 0 C3.52893333 0.01574664 7.05778742 0.00194518 10.58672583 -0.00774431 C17.46023748 -0.02211102 24.33344901 -0.01020299 31.20693194 0.01136893 C39.23895405 0.03563277 47.27091109 0.03364935 55.30296171 0.03106302 C69.64495118 0.02739081 83.98680103 0.04804647 98.32874548 0.08231306 C112.19759642 0.11543623 126.0663011 0.12956187 139.9351908 0.12332869 C157.53015937 0.11545957 175.12503738 0.12493526 192.71999202 0.14817122 C198.29981666 0.15502553 203.8796224 0.15574312 209.45945036 0.15428877 C216.26703712 0.15284012 223.07450576 0.16270218 229.88205349 0.18623513 C233.34568608 0.19798643 236.80915534 0.20529391 240.27280676 0.19939756 C260.88049866 0.17887157 279.16494629 1.85442075 298.67566931 8.62430525 C300.22254431 9.15410994 300.22254431 9.15410994 301.80066931 9.69461775 C304.44505893 10.62749964 307.06359919 11.6047553 309.67566931 12.62430525 C310.37176306 12.89500837 311.06785681 13.1657115 311.78504431 13.44461775 C324.39890337 18.70829578 336.08075162 26.0494852 346.67566931 34.62430525 C347.20257361 35.04437849 347.72947791 35.46445173 348.272349 35.89725447 C369.50668796 52.89102663 386.01912973 75.14372817 395.67566931 100.62430525 C396.09074744 101.71098494 396.50582556 102.79766462 396.93348181 103.917274 C397.57930212 105.65944197 397.57930212 105.65944197 398.23816931 107.43680525 C398.82791541 109.02428572 398.82791541 109.02428572 399.42957556 110.6438365 C402.62927905 120.28290637 404.19399683 130.07317854 404.84501135 140.17880964 C404.96454513 141.92164854 404.96454513 141.92164854 405.08649373 143.6996963 C405.91052147 156.71429825 405.97210738 169.716336 405.96619666 182.75223494 C405.97220105 185.4479341 405.97895733 188.14362259 405.98655188 190.83931684 C406.00294049 197.32643918 406.00865094 203.81352513 406.00977664 210.30066648 C406.01073658 215.58205636 406.01489313 220.86343453 406.02117789 226.14482069 C406.03871972 241.19729175 406.04802639 256.24973466 406.04651694 271.30221602 C406.04639707 272.5113499 406.04639707 272.5113499 406.04627478 273.74491072 C406.04619302 274.55200933 406.04611126 275.35910794 406.04602702 276.19066408 C406.04521324 289.28434127 406.06439254 302.3779037 406.09255151 315.47154769 C406.12139652 328.99312002 406.13508587 342.51463652 406.13336396 356.03624034 C406.13270468 363.59704499 406.13799343 371.15772883 406.15972006 378.71850538 C406.17808472 385.1489445 406.18215467 391.57920784 406.16870122 398.00966206 C406.16225114 401.27756898 406.16401148 404.54507659 406.17940772 407.81296301 C406.36109715 449.08702478 395.05738536 487.09961651 367.67566931 518.62430525 C366.94477087 519.47766462 366.21387244 520.331024 365.46082556 521.21024275 C339.97801077 550.32066386 301.29763396 569.70742128 262.67566931 572.62430525 C258.67012401 572.76095642 254.66827583 572.76796487 250.66065466 572.76474714 C249.48874752 572.76771827 248.31684038 572.77068939 247.1094209 572.77375054 C243.88310357 572.78088228 240.65681888 572.78360605 237.4304949 572.78434801 C233.94017193 572.78621126 230.4498602 572.79376485 226.95954382 572.80048323 C219.33933729 572.81401576 211.71913606 572.82008333 204.09891951 572.82449389 C199.33240266 572.82726496 194.56588781 572.83150386 189.79937232 572.83599806 C176.57803725 572.84818415 163.35670378 572.85848472 150.13536322 572.86187315 C148.86817415 572.8622025 148.86817415 572.8622025 147.5753853 572.8625385 C146.72867955 572.86275678 145.8819738 572.86297506 145.0096103 572.86319995 C143.29412997 572.8636434 141.57864964 572.86408996 139.86316931 572.86453962 C139.01224886 572.86476105 138.16132841 572.86498248 137.28462249 572.86521062 C123.51075952 572.86915483 109.73694956 572.8866003 95.96310705 572.90989915 C81.79008592 572.93367785 67.61709133 572.94607796 53.44404995 572.94724107 C45.49919837 572.94815418 37.55441591 572.95381413 29.6095835 572.97206068 C22.84191772 572.98754998 16.07434242 572.99253056 9.30666226 572.98432258 C5.86134127 572.98044702 2.41620198 572.98119164 -1.02909601 572.99537992 C-47.22621834 573.15326436 -88.55313798 558.83582926 -121.87657678 526.0994029 C-146.53582618 500.98783842 -163.05052788 466.93632774 -165.43117273 431.77034712 C-165.51537363 430.5484149 -165.59957453 429.32648269 -165.68632698 428.06752223 C-166.53449557 414.80699635 -166.6208668 401.57052509 -166.61485803 388.28763533 C-166.62086311 385.58205358 -166.62761953 382.87648245 -166.63521326 380.17090559 C-166.65158968 373.66521245 -166.65731162 367.15955558 -166.65843801 360.6538435 C-166.65939795 355.36098434 -166.66355441 350.06813688 -166.66983926 344.77528143 C-166.68737271 329.69832455 -166.69668835 314.62139577 -166.69517832 299.54442862 C-166.6950984 298.73732844 -166.69501849 297.93022825 -166.69493616 297.09867048 C-166.69485439 296.29056351 -166.69477263 295.48245654 -166.69468839 294.64986148 C-166.69387342 281.51986211 -166.71308485 268.38997685 -166.74121289 255.26001052 C-166.77000988 241.7090552 -166.78375006 228.15815551 -166.78202534 214.60716885 C-166.78136473 207.02644966 -166.78671423 199.44585083 -166.80838144 191.86515951 C-166.82668153 185.42286188 -166.83086721 178.98073949 -166.81736259 172.53842697 C-166.81088256 169.26112979 -166.81275626 165.9842338 -166.82806909 162.70695639 C-166.88949177 148.64367845 -166.17921224 136.17359853 -162.32433069 122.62430525 C-162.001427 120.77532264 -161.70225289 118.92165305 -161.44933069 117.06180525 C-155.38047922 82.42749775 -128.99773124 49.85855196 -101.32433069 29.62430525 C-90.20030108 21.82514331 -79.01844541 15.48056292 -66.32433069 10.62430525 C-65.37686975 10.23243025 -64.42940881 9.84055525 -63.45323694 9.43680525 C-42.94797827 1.40536978 -21.80984005 -0.13239068 0 0 Z M-89.32433069 48.62430525 C-90.26147913 49.341024 -91.19862756 50.05774275 -92.16417444 50.79618025 C-114.08077631 68.0275975 -129.04659991 89.8460521 -139.32433069 115.62430525 C-139.78839319 116.78059431 -140.25245569 117.93688337 -140.73058069 119.1282115 C-148.06965183 139.15403062 -148.91986013 160.17804556 -148.85777795 181.27835798 C-148.86485689 183.85214429 -148.87361009 186.42592645 -148.88388574 188.99970198 C-148.90527609 195.20119809 -148.90546426 201.40250899 -148.8972602 207.60402971 C-148.89090232 212.65474694 -148.89214947 217.70541106 -148.89853227 222.75612783 C-148.89943393 223.48112873 -148.90033558 224.20612963 -148.90126456 224.95310025 C-148.90311618 226.42696517 -148.90497874 227.90083007 -148.90685212 229.37469495 C-148.92334331 243.12394345 -148.91478563 256.87308865 -148.89786654 270.62233085 C-148.88317481 283.13936782 -148.89780602 295.65616461 -148.9266367 308.17317068 C-148.95618491 321.10028906 -148.96695856 334.0272972 -148.9574545 346.95444781 C-148.95643219 348.42252082 -148.95543757 349.89059385 -148.95447099 351.3586669 C-148.9539946 352.08055861 -148.95351821 352.80245032 -148.95302739 353.54621754 C-148.95088365 358.57675538 -148.96055685 363.60718635 -148.97524202 368.63770056 C-148.99482212 375.4383798 -148.98742811 382.23861027 -148.96304262 389.03927183 C-148.95809027 391.5137398 -148.96137633 393.9882425 -148.97419107 396.46268225 C-149.18832159 441.41630067 -134.33445833 481.33566582 -102.76183069 513.43680525 C-102.24886438 513.95935896 -101.73589807 514.48191267 -101.20738733 515.02030134 C-98.73078494 517.79384935 -98.73078494 517.79384935 -95.32433069 518.62430525 C-94.82933069 520.10930525 -94.82933069 520.10930525 -94.32433069 521.62430525 C-92.24570737 523.35588147 -92.24570737 523.35588147 -89.69933069 524.99930525 C-86.55075445 527.11784726 -83.46592358 529.26001371 -80.44933069 531.56180525 C-77.39196882 533.99153339 -77.39196882 533.99153339 -73.32433069 533.62430525 C-73.32433069 534.28430525 -73.32433069 534.94430525 -73.32433069 535.62430525 C-68.75061169 538.33120017 -64.24584402 540.58781697 -59.32433069 542.62430525 C-58.63468225 542.95559431 -57.94503381 543.28688337 -57.23448694 543.6282115 C-52.57375955 545.84799554 -48.27417199 547.17842789 -43.19542444 548.057899 C-38.43637226 548.99675963 -33.79496226 550.39210141 -29.13292444 551.7219615 C-21.11370498 553.62189965 -13.15625345 553.76908594 -4.94519556 553.75128889 C-3.8297516 553.75284888 -2.71430764 553.75440887 -1.56506234 553.75601614 C2.15638981 553.75999091 5.87780087 553.75685014 9.5992533 553.75369978 C12.27397781 553.75505539 14.94869954 553.7568002 17.62342322 553.75900984 C24.12469064 553.76344719 30.62594649 553.76250008 37.12721436 553.7595972 C42.41343292 553.75733497 47.69964824 553.75703419 52.98586714 553.75812101 C53.73943412 553.75827425 54.4930011 553.75842748 55.26940345 553.75858536 C56.80047333 553.7589051 58.33154321 553.75922931 59.86261309 553.75955795 C74.20646922 553.76240683 88.55031896 553.75913509 102.89417405 553.75375758 C115.18861122 553.74929099 127.48303895 553.75006543 139.77747595 553.75467634 C154.06992576 553.76003412 168.36236995 553.76213124 182.65482062 553.75906408 C184.18043232 553.75874555 185.70604402 553.75843117 187.23165572 553.75812101 C188.35746586 553.7578896 188.35746586 553.7578896 189.50601963 553.75765351 C194.78233752 553.7567919 200.05865183 553.75824359 205.33496916 553.76060057 C211.77019307 553.76341216 218.20540479 553.7626317 224.64062732 553.75731982 C227.92084329 553.754701 231.2010349 553.75418979 234.48125136 553.75696898 C238.04403787 553.75970887 241.60676763 553.75626462 245.16955054 553.75128889 C246.19651193 553.75351961 247.22347332 553.75575033 248.28155476 553.75804865 C257.81874347 553.73228477 266.69465797 552.92113509 275.86316931 550.24930525 C276.61791541 550.04047712 277.3726615 549.831649 278.15027869 549.61649275 C282.84973293 548.28192912 287.20733768 546.59191007 291.67566931 544.62430525 C292.87191931 544.29430525 294.06816931 543.96430525 295.30066931 543.62430525 C298.63096596 542.63755069 300.72768634 541.42652997 303.67566931 539.62430525 C305.00655617 538.89605824 306.34158936 538.17536263 307.67957556 537.46024275 C333.93687278 523.34097007 358.08098506 502.27117312 370.67566931 474.62430525 C370.67566931 473.96430525 370.67566931 473.30430525 370.67566931 472.62430525 C371.33566931 472.62430525 371.99566931 472.62430525 372.67566931 472.62430525 C372.91801306 472.00684431 373.16035681 471.38938337 373.41004431 470.7532115 C373.74520056 469.90629744 374.08035681 469.05938337 374.42566931 468.18680525 C374.790474 467.26254744 375.15527869 466.33828962 375.53113806 465.386024 C376.50986553 463.02438468 377.59439072 460.78244631 378.73816931 458.49930525 C381.20251959 453.06807053 382.0268812 447.27540291 383.01941931 441.4407115 C383.6409024 437.82649141 384.38718319 434.27740996 385.24598181 430.714149 C386.63210316 423.97255882 386.81980072 417.4929639 386.80938208 410.62648726 C386.81164764 409.52782507 386.81391319 408.42916288 386.8162474 407.29720789 C386.82257112 403.62034094 386.82175907 399.94351101 386.82093298 396.26663923 C386.82392555 393.62825588 386.82730014 390.98987541 386.8311106 388.35149336 C386.8394049 381.93016021 386.84216492 375.50883624 386.84272297 369.08749818 C386.84319887 363.86371813 386.84525729 358.63994111 386.8484236 353.41616201 C386.85722812 338.58730413 386.86184348 323.75845347 386.86109313 308.92959296 C386.86105317 308.1307401 386.86101321 307.33188725 386.86097205 306.50882673 C386.86093117 305.7089916 386.86089029 304.90915647 386.86084817 304.08508391 C386.86044212 291.13605531 386.87000179 278.18705585 386.88411041 265.23803567 C386.8985016 251.92393829 386.90537904 238.60985508 386.90451664 225.29574972 C386.90418553 217.82831009 386.90689424 210.36090098 386.91769469 202.89346838 C386.92683601 196.5325949 386.92894542 190.17176576 386.92218526 183.81088852 C386.91893781 180.57066856 386.91990234 177.33055042 386.92753851 174.09033537 C387.03255312 155.76148273 387.03255312 155.76148273 384.67566931 137.62430525 C384.47695322 136.62902028 384.27823712 135.63373531 384.07349932 134.6082902 C383.53058119 131.99589045 382.92678159 129.4054159 382.30066931 126.81180525 C382.00676306 125.51726423 382.00676306 125.51726423 381.70691931 124.19657087 C380.31023909 118.33139792 378.30682054 113.04290713 375.67566931 107.62430525 C375.34687781 106.94110212 375.0180863 106.257899 374.67933142 105.55399275 C373.70877914 103.56057167 372.69719787 101.59209185 371.67566931 99.62430525 C371.256724 98.80317244 370.83777869 97.98203962 370.40613806 97.136024 C366.40698164 89.52330475 361.69448238 82.59328567 356.67566931 75.62430525 C356.132974 74.83926619 355.59027869 74.05422712 355.03113806 73.245399 C354.58383337 72.71043806 354.13652869 72.17547712 353.67566931 71.62430525 C353.01566931 71.62430525 352.35566931 71.62430525 351.67566931 71.62430525 C351.45008337 71.07645369 351.22449744 70.52860212 350.99207556 69.964149 C338.54773125 47.8449732 306.25004377 32.00950406 282.97645056 25.2219615 C278.23111627 23.90337132 273.489941 22.66518997 268.67566931 21.62430525 C267.88373742 21.44837245 267.09180552 21.27243965 266.27587569 21.09117556 C254.12270813 18.81977255 241.75372201 19.33633394 229.44080603 19.34964705 C226.78009023 19.34529497 224.11938563 19.3401737 221.45867407 19.33415937 C215.00439185 19.3214676 208.55015134 19.31961186 202.09585874 19.32195964 C196.84270421 19.32374967 191.58956224 19.32197853 186.33640921 19.3177352 C185.5859827 19.31714001 184.83555618 19.31654482 184.06238947 19.31593159 C182.53737731 19.31471971 181.01236514 19.31350557 179.48735298 19.31228922 C165.21282788 19.3014343 150.93832644 19.30356606 136.66380002 19.30967406 C123.64414824 19.31483769 110.6245714 19.30359876 97.60493444 19.28457584 C84.19682694 19.26513749 70.78875478 19.25695215 57.38063312 19.26069909 C49.86895662 19.26260255 42.35734383 19.26020806 34.84567893 19.24598455 C28.44847584 19.23399277 22.05137562 19.232752 15.65417092 19.24477472 C12.39907188 19.25061022 9.14419633 19.25024478 5.88910353 19.23977232 C-29.26433236 19.13490995 -61.20511685 26.35877194 -89.32433069 48.62430525 Z " fill="#D7C932" transform="translate(520.3243306875229,353.3756947517395)"/>
<path d="M0 0 C2.65673933 -0.0057143 5.31345379 -0.01258426 7.97018433 -0.02079773 C14.39258299 -0.03785325 20.81488325 -0.03885357 27.23729865 -0.03358483 C32.46597571 -0.02951681 37.69462406 -0.0310176 42.92329979 -0.03633308 C44.0464209 -0.03745572 44.0464209 -0.03745572 45.19223132 -0.03860103 C46.71409709 -0.04013276 48.23596286 -0.04167111 49.75782862 -0.043216 C63.97811673 -0.05689319 78.19834959 -0.05153723 92.4186364 -0.04003078 C105.37770636 -0.03010417 118.33663341 -0.04303772 131.29568134 -0.06696498 C144.65993051 -0.09145106 158.0241134 -0.10094057 171.38838452 -0.09431225 C178.86822651 -0.09084095 186.34795878 -0.09291231 193.82778358 -0.11056328 C200.19514087 -0.12540502 206.56231116 -0.12576677 212.92966525 -0.10849237 C216.16700764 -0.10007683 219.40395524 -0.09983141 222.64129066 -0.11314392 C251.2559863 -0.22172499 276.96737388 4.47926887 302.1315918 18.40405273 C303.77708008 19.3109082 303.77708008 19.3109082 305.45581055 20.23608398 C318.92016468 28.10271155 331.9431522 38.553516 342.1315918 50.40405273 C342.1315918 51.06405273 342.1315918 51.72405273 342.1315918 52.40405273 C343.1215918 52.73405273 344.1115918 53.06405273 345.1315918 53.40405273 C346.47851562 54.90356445 346.47851562 54.90356445 347.83862305 56.83374023 C348.59091187 57.8955249 348.59091187 57.8955249 349.35839844 58.97875977 C349.88167725 59.73785645 350.40495605 60.49695313 350.9440918 61.27905273 C351.48090576 62.04975098 352.01771973 62.82044922 352.57080078 63.61450195 C357.99520074 71.49779848 362.51715493 79.53225315 366.1315918 88.40405273 C366.60725586 89.41338867 366.60725586 89.41338867 367.0925293 90.44311523 C374.86757276 106.98700471 377.29301942 125.65336399 377.26530457 143.76263428 C377.2687029 145.41447247 377.2687029 145.41447247 377.27216989 147.09968114 C377.27846912 150.76722992 377.27768315 154.43474135 377.27685547 158.10229492 C377.2798495 160.74112077 377.28322462 163.37994376 377.28703308 166.01876831 C377.29531161 172.42966381 377.29808665 178.84055011 377.29864546 185.25145051 C377.29912193 190.46657756 377.30118322 195.6817016 377.30434608 200.8968277 C377.31314488 215.70796113 377.31776665 230.51908734 377.31701561 245.33022341 C377.31695568 246.52595838 377.31695568 246.52595838 377.31689453 247.74584961 C377.31683321 248.94305755 377.31683321 248.94305755 377.31677065 250.16445151 C377.31636436 263.09388981 377.32593167 276.02329896 377.3400329 288.95272884 C377.35442363 302.25336105 377.36130161 315.55397907 377.36043912 328.85461926 C377.36010809 336.31195384 377.36281383 343.76925786 377.37361717 351.22658539 C377.38275772 357.57640683 377.38486839 363.92618385 377.37810775 370.27600905 C377.37486043 373.51017414 377.37582455 376.74423721 377.383461 379.97839737 C377.44775712 409.10675511 377.44775712 409.10675511 373.1315918 423.40405273 C372.82915431 425.19393275 372.53855996 426.98583416 372.2565918 428.77905273 C371.47143609 433.27529597 370.19298902 437.02335248 368.2175293 441.12280273 C366.31133652 445.12717893 364.75126287 449.2773376 363.1315918 453.40405273 C362.4715918 453.40405273 361.8115918 453.40405273 361.1315918 453.40405273 C360.77194336 454.65702148 360.77194336 454.65702148 360.4050293 455.93530273 C358.93562944 459.93783976 357.01820897 463.30616556 354.7565918 466.90405273 C354.32032471 467.59893799 353.88405762 468.29382324 353.43457031 469.00976562 C348.6681729 476.40259672 343.09334437 482.95704123 337.1315918 489.40405273 C336.37104492 490.23549805 335.61049805 491.06694336 334.8269043 491.92358398 C322.88371021 504.41362761 308.11660741 513.513574 292.69018555 521.09545898 C290.05057707 522.28002455 290.05057707 522.28002455 288.1315918 524.40405273 C286.3190918 524.89624023 286.3190918 524.89624023 284.1315918 525.27905273 C280.65953268 525.98232468 277.57875977 526.9565888 274.3190918 528.34155273 C261.75363178 533.56255008 249.10338218 534.55809953 235.6456604 534.5377655 C233.97332952 534.54116384 233.97332952 534.54116384 232.26721418 534.54463083 C228.55353897 534.55093096 224.83990064 534.55014404 221.1262207 534.54931641 C218.45459356 534.55231034 215.78296925 534.55568542 213.11134338 534.55949402 C206.62090749 534.56777266 200.13048067 534.57054757 193.64003994 534.5711064 C188.36148991 534.57158278 183.08294286 534.57364362 177.80439377 534.57680702 C162.81711644 534.58560516 147.82984625 534.59022759 132.84256633 534.58947655 C132.03592325 534.58943659 131.22928017 534.58939664 130.39819336 534.58935547 C129.59055827 534.58931459 128.78292317 534.58927371 127.95081429 534.58923159 C114.86159513 534.58882512 101.77240472 534.59839708 88.68319388 534.61249384 C75.22210959 534.626876 61.76103931 534.63376304 48.29994714 534.63290006 C40.75101465 534.63256878 33.20211234 534.63528578 25.6531868 534.64607811 C19.22681892 534.65520726 12.80049492 534.65733851 6.37412335 534.65056869 C3.09970111 534.64731593 -0.17462011 534.64830028 -3.44903755 534.65592194 C-7.00893583 534.66366941 -10.56861575 534.65897874 -14.12850952 534.65129089 C-15.65918991 534.65900624 -15.65918991 534.65900624 -17.22079313 534.66687745 C-26.29765202 534.62378574 -35.09080063 533.27851187 -43.8684082 530.96655273 C-46.92272532 530.1699484 -49.97293126 529.37923976 -53.04418945 528.65014648 C-61.66338298 526.60000207 -68.99832416 523.41064097 -76.8684082 519.40405273 C-78.0234082 518.82655273 -79.1784082 518.24905273 -80.3684082 517.65405273 C-81.6059082 517.03530273 -81.6059082 517.03530273 -82.8684082 516.40405273 C-82.8684082 515.74405273 -82.8684082 515.08405273 -82.8684082 514.40405273 C-83.55805664 514.32928711 -84.24770508 514.25452148 -84.95825195 514.17749023 C-88.66520719 513.19228602 -91.37443071 511.25194546 -94.4309082 509.02905273 C-95.27685547 508.42963867 -95.27685547 508.42963867 -96.13989258 507.81811523 C-97.72422299 506.69148027 -99.29668941 505.54821584 -100.8684082 504.40405273 C-102.05756836 503.5803418 -102.05756836 503.5803418 -103.27075195 502.73999023 C-103.79797852 502.29913086 -104.32520508 501.85827148 -104.8684082 501.40405273 C-104.8684082 500.74405273 -104.8684082 500.08405273 -104.8684082 499.40405273 C-105.76354126 498.99352661 -105.76354126 498.99352661 -106.67675781 498.57470703 C-127.71833799 487.33549828 -144.08279976 455.21995968 -150.8684082 433.40405273 C-152.61701857 426.78954494 -154.00156928 420.09773222 -155.29345703 413.38085938 C-155.62053942 411.68739203 -155.96297654 409.99630348 -156.3526541 408.31613505 C-157.77785043 401.91099482 -158.15640909 395.85013438 -158.13583374 389.30258179 C-158.14036485 388.22882974 -158.14489597 387.1550777 -158.14956439 386.04878771 C-158.16215973 382.4736427 -158.1605911 378.89865098 -158.15893555 375.32348633 C-158.16492416 372.75014552 -158.17173048 370.17680651 -158.17929077 367.60346985 C-158.19585043 361.34963731 -158.2013982 355.0958425 -158.20251553 348.84198986 C-158.20346922 343.74851217 -158.2075955 338.65504681 -158.21391678 333.56157303 C-158.23152216 319.07777913 -158.24075776 304.59401478 -158.23925583 290.11021011 C-158.23917592 289.33061567 -158.23909601 288.55102124 -158.23901367 287.74780273 C-158.23893191 286.96724029 -158.23885015 286.18667784 -158.23876591 285.38246198 C-158.23795513 272.76690031 -158.25704194 260.15145865 -158.28529041 247.53593163 C-158.31415667 234.54034808 -158.32782292 221.54482274 -158.32610285 208.54920638 C-158.32544325 201.27036638 -158.33074355 193.99165187 -158.35245895 186.71284103 C-158.37279626 179.85250499 -158.3718581 172.99243562 -158.35742569 166.1320858 C-158.35535549 163.63301517 -158.3599297 161.13392741 -158.37214661 158.63488579 C-158.57397501 114.4375386 -146.11031526 75.42822976 -114.8684082 43.40405273 C-114.24063477 42.7144043 -113.61286133 42.02475586 -112.96606445 41.31420898 C-83.31619822 9.58820332 -41.5994641 -0.08148588 0 0 Z M-56.63793945 23.01733398 C-59.77169432 24.3625371 -62.49736689 24.99295014 -65.8684082 25.40405273 C-65.8684082 26.06405273 -65.8684082 26.72405273 -65.8684082 27.40405273 C-67.2915332 27.71342773 -67.2915332 27.71342773 -68.7434082 28.02905273 C-92.62182508 35.03529481 -115.02496759 61.77260459 -126.8684082 82.40405273 C-129.09140291 86.70566925 -129.09140291 86.70566925 -129.8684082 91.40405273 C-130.5284082 91.40405273 -131.1884082 91.40405273 -131.8684082 91.40405273 C-132.1365332 92.68280273 -132.4046582 93.96155273 -132.6809082 95.27905273 C-134.14248671 101.83557042 -135.96109024 108.24075637 -138.4934082 114.46655273 C-141.48442947 122.3179565 -141.01552313 130.95158029 -141.0088501 139.23202515 C-141.01182122 140.39576617 -141.01479234 141.55950719 -141.0178535 142.75851309 C-141.02499251 145.96639938 -141.02770957 149.17425288 -141.02845097 152.38214588 C-141.0303123 155.85053917 -141.03786476 159.3189211 -141.04458618 162.78730774 C-141.05812374 170.35958434 -141.06418646 177.93185561 -141.06859684 185.50414228 C-141.07136584 190.23659469 -141.07560426 194.96904508 -141.08010101 199.70149612 C-141.09228544 212.81814889 -141.10258785 225.93480005 -141.1059761 239.05145836 C-141.10619567 239.88964429 -141.10641524 240.72783023 -141.10664146 241.59141574 C-141.10685973 242.43153296 -141.10707801 243.27165019 -141.1073029 244.13722551 C-141.10774636 245.83944917 -141.10819292 247.54167283 -141.10864258 249.24389648 C-141.10886401 250.08824677 -141.10908544 250.93259705 -141.10931358 251.8025337 C-141.11326261 265.48742467 -141.13072354 279.17226243 -141.1540021 292.85713284 C-141.17773813 306.92499737 -141.1901789 320.99283521 -141.19134402 335.06072009 C-141.19225927 342.95226675 -141.1979742 350.84374397 -141.21616364 358.73527145 C-141.23159473 365.45338878 -141.23666721 372.17141517 -141.22842553 378.88954686 C-141.22453026 382.31374126 -141.22539343 385.7377527 -141.23948288 389.16192436 C-141.25220665 392.88214369 -141.24632268 396.60189667 -141.23590088 400.32211304 C-141.24395728 401.39285297 -141.25201369 402.4635929 -141.26031423 403.56677949 C-141.16698223 417.85893621 -135.46162089 430.25584552 -129.42919922 442.94165039 C-127.84796042 446.26760272 -126.38920662 449.59786297 -125.0559082 453.02905273 C-120.53360003 463.29121358 -111.4737495 472.36557643 -103.8684082 480.40405273 C-103.02665039 481.31026367 -102.18489258 482.21647461 -101.31762695 483.15014648 C-94.74385535 490.00932062 -87.8878057 495.36699336 -79.8684082 500.40405273 C-78.82849228 501.09347961 -77.78857635 501.78290649 -76.71714783 502.4932251 C-72.53355364 504.85591757 -68.87518996 504.98006183 -64.14794922 504.94995117 C-63.28848064 504.96028318 -62.42901207 504.9706152 -61.54349899 504.9812603 C-58.6529178 505.01097134 -55.76303815 505.01218687 -52.87231445 505.01342773 C-50.76701162 505.02863029 -48.66172012 505.0454749 -46.55644226 505.06381226 C-40.74462016 505.10890097 -34.93295584 505.12821786 -29.12098694 505.14267731 C-24.15059106 505.15799958 -19.18031897 505.18753298 -14.20998955 505.21693611 C2.6725842 505.31592992 19.55511247 505.36053642 36.43791962 505.3943634 C41.23801446 505.40408044 46.03810486 505.41542047 50.8381958 505.42687988 C150.9456816 505.66548126 150.9456816 505.66548126 251.05073547 505.05617523 C253.72850982 505.02933422 256.40629615 505.00567034 259.08410645 504.98272705 C263.11862169 504.94718582 267.15287634 504.90142597 271.18716812 504.84611511 C272.60419207 504.82783932 274.02125868 504.81255563 275.43835068 504.80067444 C277.32399487 504.78396542 279.2095058 504.75380837 281.0949707 504.72290039 C282.12683502 504.70957672 283.15869934 504.69625305 284.22183228 504.68252563 C287.42721853 504.37576035 290.12333181 503.52819918 293.1315918 502.40405273 C293.1315918 501.74405273 293.1315918 501.08405273 293.1315918 500.40405273 C294.01459961 500.47495117 294.89760742 500.54584961 295.80737305 500.61889648 C299.77363492 500.36255759 301.20815319 499.38094231 304.3190918 496.96655273 C305.26010742 496.24467773 306.20112305 495.52280273 307.1706543 494.77905273 C311.11428252 491.61582587 315.03887719 488.43282262 318.91674805 485.18920898 C321.1315918 483.40405273 321.1315918 483.40405273 323.1315918 482.40405273 C323.1315918 481.74405273 323.1315918 481.08405273 323.1315918 480.40405273 C323.7915918 480.40405273 324.4515918 480.40405273 325.1315918 480.40405273 C326.14510844 478.74557096 327.14279975 477.07739312 328.1315918 475.40405273 C329.45519823 474.06106295 330.78968424 472.72875635 332.1315918 471.40405273 C340.30948634 462.075068 347.7311452 452.10523738 350.4987793 439.86108398 C351.09427805 437.54893142 351.84225667 435.84643519 353.0065918 433.77905273 C355.09827479 429.84412419 356.4154708 425.71992462 357.6940918 421.46655273 C357.89180176 420.82959473 358.08951172 420.19263672 358.29321289 419.53637695 C363.08067768 403.09007377 363.57080417 387.1059547 363.53564453 370.10791016 C363.54135784 367.59601032 363.54832579 365.08411307 363.55644226 362.57221985 C363.5724371 356.49645006 363.57449584 350.42082058 363.56922936 344.34503623 C363.56516326 339.39899765 363.56665991 334.45298945 363.57197762 329.50695229 C363.57272604 328.79898687 363.57347446 328.09102146 363.57424556 327.36160255 C363.57577728 325.92267725 363.57731562 324.48375195 363.57886053 323.04482666 C363.59254163 309.5957429 363.58717905 296.14671754 363.57567532 282.69763515 C363.56574891 270.4387019 363.57868117 258.17991971 363.60260951 245.92100974 C363.62709011 233.28230065 363.6365864 220.64366165 363.62995678 208.00492936 C363.62648419 200.92977237 363.62856551 193.85473136 363.64620781 186.77959251 C363.66260572 180.12188431 363.65760995 173.46450793 363.63890266 166.80679131 C363.63524454 164.37860414 363.63824301 161.95039527 363.64878845 159.52222824 C363.75321358 133.46662954 359.14672716 109.96455867 346.8659668 86.85717773 C345.1315918 83.40405273 345.1315918 83.40405273 344.1550293 80.34936523 C342.93696698 76.84394926 341.15203002 74.01878272 339.0065918 71.02905273 C338.57918701 70.43326416 338.15178223 69.83747559 337.71142578 69.22363281 C327.99885365 56.17727222 309.38529873 34.65623542 292.94018555 30.90405273 C291.1315918 30.40405273 291.1315918 30.40405273 289.1315918 27.40405273 C285.18957691 25.00038512 281.43132934 23.96400024 276.93237305 23.06420898 C273.37194034 22.2249996 269.92060207 21.0945386 266.4440918 19.96655273 C253.01690703 15.65912448 239.78570794 13.25073154 225.69255066 13.26361084 C224.66598226 13.26063972 223.63941387 13.2576686 222.58173734 13.25460744 C219.15458086 13.24596177 215.72745948 13.24441567 212.30029297 13.24291992 C209.8373609 13.23828868 207.37442955 13.23326361 204.91149902 13.22787476 C198.22702458 13.21477493 191.54256376 13.20827263 184.85807967 13.2038641 C180.67550452 13.20109342 176.49293165 13.19685448 172.31035805 13.19235992 C160.70612706 13.18017044 149.10189789 13.16987196 137.49766064 13.16648483 C136.75591564 13.16626527 136.01417064 13.1660457 135.24994852 13.16581948 C134.50652521 13.1656012 133.76310189 13.16538293 132.9971506 13.16515803 C131.49093894 13.16471458 129.98472728 13.16426802 128.47851562 13.16381836 C127.731398 13.16359693 126.98428037 13.1633755 126.21452282 13.16314736 C114.13220144 13.15920671 102.04994064 13.1417737 89.96764263 13.11845884 C77.53150876 13.09465716 65.09540516 13.08227892 52.65924817 13.08111691 C45.68963494 13.08020485 38.72010057 13.07457213 31.75050926 13.0562973 C25.18492582 13.0391414 18.61946447 13.03770906 12.0538559 13.04643631 C9.65750287 13.04720149 7.26114151 13.04293336 4.86480904 13.03297806 C-16.16911587 12.95079186 -37.11143759 14.44892696 -56.63793945 23.01733398 Z " fill="#2B2726" transform="translate(529.868408203125,372.595947265625)"/>
<path d="M0 0 C1.98 0.495 1.98 0.495 4 1 C-16.53864613 14.47848652 -40.41475415 21.16211125 -64.88319397 21.14044189 C-65.94540191 21.14341302 -67.00760984 21.14638414 -68.1020059 21.1494453 C-71.64361425 21.15808231 -75.18518861 21.1596363 -78.72680664 21.16113281 C-81.27357047 21.16576453 -83.82033361 21.17078967 -86.36709595 21.17617798 C-93.27444207 21.18927006 -100.18177709 21.19577813 -107.0891335 21.20018864 C-111.40955111 21.20295958 -115.7299665 21.20719845 -120.05038261 21.21169281 C-132.0338238 21.22387886 -144.01726324 21.23417951 -156.00071049 21.2375679 C-157.14926867 21.23789725 -157.14926867 21.23789725 -158.32103005 21.23823325 C-159.47219181 21.23856067 -159.47219181 21.23856067 -160.64660937 21.2388947 C-162.20149934 21.23933815 -163.75638932 21.23978472 -165.3112793 21.24023438 C-166.08254327 21.2404558 -166.85380725 21.24067723 -167.64844286 21.24090537 C-180.13365103 21.24484981 -192.61880072 21.26229598 -205.10398633 21.2855939 C-217.9503318 21.30937046 -230.79664799 21.32177261 -243.6430158 21.32293582 C-250.84446652 21.32384904 -258.045841 21.3295118 -265.24727058 21.34775543 C-272.02627555 21.36486958 -278.80511188 21.3663622 -285.58414078 21.35761642 C-288.06238251 21.35684929 -290.54063218 21.36114572 -293.01885414 21.37107468 C-306.03640668 21.42014138 -318.31790801 21.15186846 -331 18 C-331.8080713 17.80272938 -332.6161426 17.60545876 -333.4487009 17.40221024 C-341.17092825 15.35867738 -348.61152465 12.46865919 -355.9375 9.3125 C-356.63037109 9.01504883 -357.32324219 8.71759766 -358.03710938 8.41113281 C-362.87373018 6.25253964 -362.87373018 6.25253964 -364 4 C-363.1856683 4.00056958 -363.1856683 4.00056958 -362.35488546 4.00115067 C-329.71593856 4.02384368 -297.07699386 4.0408413 -264.43804082 4.05106533 C-260.4630884 4.05231509 -256.48813599 4.05360951 -252.51318359 4.05493164 C-251.72229507 4.05519395 -250.93140655 4.05545626 -250.11655171 4.05572652 C-239.08334604 4.05947787 -228.05014404 4.06561796 -217.01694074 4.0737354 C-130.12823113 4.18557982 -130.12823113 4.18557982 -43.24236345 3.59018397 C-40.50542098 3.55892336 -37.76846547 3.52909912 -35.03150558 3.49940681 C-30.88195473 3.45350143 -26.732519 3.40184172 -22.58310843 3.344661 C-21.1069295 3.3247046 -19.6307315 3.3061035 -18.1545167 3.28900599 C-16.17583666 3.26541022 -14.19724054 3.23506069 -12.21865845 3.20433044 C-11.1283967 3.18897468 -10.03813496 3.17361891 -8.91483498 3.15779781 C-6.15324172 3.00829591 -3.66269187 2.74990925 -1 2 C-0.67 1.34 -0.34 0.68 0 0 Z " fill="#561312" transform="translate(823,873)"/>
<path d="M0 0 C125.73 0 251.46 0 381 0 C377.85085969 2.36185523 376.43079504 3.39957986 372.9453125 4.5 C372.17243896 4.74596924 371.39956543 4.99193848 370.60327148 5.24536133 C369.78544189 5.49439209 368.9676123 5.74342285 368.125 6 C367.27945557 6.26127686 366.43391113 6.52255371 365.56274414 6.79174805 C351.07159314 11.18279834 337.11506671 13.15258988 321.98498535 13.14044189 C320.81307821 13.14341302 319.64117106 13.14638414 318.43375158 13.1494453 C315.20743426 13.15657703 311.98114957 13.1593008 308.75482559 13.16004276 C305.26450261 13.16190601 301.77419089 13.1694596 298.28387451 13.17617798 C290.66366798 13.18971052 283.04346674 13.19577808 275.4232502 13.20018864 C270.65673335 13.20295971 265.8902185 13.20719861 261.123703 13.21169281 C247.90236794 13.2238789 234.68103447 13.23417947 221.45969391 13.2375679 C220.19250484 13.23789725 220.19250484 13.23789725 218.89971599 13.23823325 C218.05301024 13.23845153 217.20630449 13.23866981 216.33394098 13.2388947 C214.61846065 13.23933815 212.90298033 13.23978472 211.1875 13.24023438 C210.33657955 13.2404558 209.4856591 13.24067723 208.60895318 13.24090537 C194.8350902 13.24484958 181.06128025 13.26229505 167.28743774 13.2855939 C153.11441661 13.3093726 138.94142202 13.32177271 124.76838064 13.32293582 C116.82352906 13.32384893 108.8787466 13.32950889 100.93391418 13.34775543 C94.16624841 13.36324474 87.39867311 13.36822531 80.63099295 13.36001733 C77.18567195 13.35614177 73.74053267 13.35688639 70.29523468 13.37107468 C45.3973273 13.45616639 23.17835105 10.53712927 0 1 C0 0.67 0 0.34 0 0 Z " fill="#837913" transform="translate(449,913)"/>
<path d="M0 0 C-7.87746171 5.88183807 -7.87746171 5.88183807 -12.5625 6.375 C-13.366875 6.25125 -14.17125 6.1275 -15 6 C-15.33 6.99 -15.66 7.98 -16 9 C-20.14987619 9.99285182 -24.17511281 10.16980942 -28.42016602 10.20532227 C-29.16576971 10.2152162 -29.91137341 10.22511013 -30.67957115 10.23530388 C-33.20431704 10.26725807 -35.7290767 10.29200869 -38.25390625 10.31640625 C-40.10356377 10.33728008 -41.95321886 10.35836961 -43.8028717 10.37965393 C-48.95774562 10.43682549 -54.11266756 10.48601155 -59.26764679 10.53263092 C-62.58092721 10.56266705 -65.89419224 10.59411503 -69.2074585 10.62567139 C-132.54757565 11.21717846 -195.89204057 11.18387247 -259.23419189 11.04899597 C-262.56156393 11.04200773 -265.88893616 11.03511833 -269.21630859 11.02832031 C-270.4282135 11.02582242 -270.4282135 11.02582242 -271.66460133 11.02327406 C-283.77765736 10.99907888 -295.89028264 11.00643474 -308.00333405 11.0353756 C-317.01302373 11.05572772 -326.02238878 11.05102872 -335.03205109 11.02013588 C-339.90743669 11.00412893 -344.78195473 11.00030343 -349.6572876 11.03131104 C-354.03305205 11.0588937 -358.40713091 11.05013978 -362.78279686 11.01132584 C-364.3192936 11.00398177 -365.8559306 11.00973798 -367.39229774 11.03100204 C-378.27307512 11.1722483 -385.50421779 8.80641259 -394 2 C-394.33 1.34 -394.66 0.68 -395 0 C-345.11259829 -0.15030827 -295.22518365 -0.29533735 -245.33774604 -0.4332476 C-239.45327264 -0.44951935 -233.56879937 -0.46583498 -227.68432617 -0.48217773 C-226.51279211 -0.48543066 -225.34125805 -0.48868358 -224.13422296 -0.49203508 C-205.14405267 -0.54486865 -186.15389452 -0.60126041 -167.16373845 -0.6589582 C-147.69022996 -0.7180457 -128.21671337 -0.77333019 -108.74318391 -0.82505554 C-96.71888938 -0.85711505 -84.69461115 -0.89217066 -72.67033658 -0.93101191 C-64.43421417 -0.95733289 -56.19808687 -0.97997288 -47.96194597 -0.99967117 C-43.20421081 -1.01116037 -38.44649506 -1.02431753 -33.68877792 -1.04183006 C-29.33827961 -1.05780801 -24.98779503 -1.06919309 -20.6372743 -1.07683109 C-19.05849149 -1.08043052 -17.47971154 -1.0857563 -15.90094092 -1.09292836 C-13.76432501 -1.10238915 -11.62778682 -1.10571381 -9.49115276 -1.10743046 C-8.30148897 -1.11084794 -7.11182517 -1.11426542 -5.88611096 -1.11778647 C-3 -1 -3 -1 0 0 Z " fill="#AA2726" transform="translate(838,867)"/>
<path d="M0 0 C5.83758384 0.86084186 11.38280571 2.45153934 17.05078125 4.0625 C25.04888514 6.11000541 33.16959253 6.14477741 41.37913513 6.12698364 C43.05230107 6.12932363 43.05230107 6.12932363 44.75926834 6.13171089 C48.4807205 6.13568566 52.20213155 6.13254489 55.92358398 6.12939453 C58.5983085 6.13075014 61.27303022 6.13249495 63.94775391 6.13470459 C70.44902133 6.13914194 76.95027718 6.13819483 83.45154505 6.13529195 C88.73776361 6.13302973 94.02397893 6.13272895 99.31019783 6.13381577 C100.06376481 6.133969 100.81733179 6.13412223 101.59373413 6.13428011 C103.12480402 6.13459985 104.6558739 6.13492406 106.18694378 6.1352527 C120.53079991 6.13810158 134.87464965 6.13482984 149.21850473 6.12945233 C161.51294191 6.12498574 173.80736964 6.12576018 186.10180664 6.13037109 C200.39425644 6.13572887 214.68670064 6.13782599 228.97915131 6.13475883 C230.50476301 6.1344403 232.0303747 6.13412593 233.5559864 6.13381577 C234.68179654 6.13358435 234.68179654 6.13358435 235.83035032 6.13334826 C241.1066682 6.13248665 246.38298252 6.13393834 251.65929985 6.13629532 C258.09452376 6.13910691 264.52973548 6.13832645 270.964958 6.13301457 C274.24517398 6.13039575 277.52536559 6.12988454 280.80558205 6.13266373 C284.36836856 6.13540362 287.93109831 6.13195937 291.49388123 6.12698364 C292.52084262 6.12921436 293.54780401 6.13144509 294.60588545 6.13374341 C302.29011416 6.11298513 309.90804299 5.88343439 317.375 3.9375 C321 3 321 3 325 3 C325 3.66 325 4.32 325 5 C340.84 5 356.68 5 373 5 C363.11356484 12.41482637 354.21473393 13.73309216 342.15531921 13.64837646 C340.56774424 13.65558065 338.9801779 13.6649526 337.39262706 13.67628884 C333.05473867 13.70093064 328.7173759 13.69462443 324.37945378 13.68294144 C319.69148502 13.67572403 315.00363303 13.69728526 310.31570435 13.71499634 C301.14094091 13.74489774 291.96636495 13.74757063 282.79156335 13.73998317 C275.33149452 13.73415158 267.87148155 13.73736141 260.41141701 13.74695587 C259.34843544 13.74829948 258.28545387 13.74964309 257.19026074 13.75102742 C255.03059284 13.75377074 252.87092495 13.75652322 250.71125708 13.75928476 C230.47093317 13.78387302 210.23071544 13.77629249 189.9903907 13.75871471 C171.4899995 13.74361615 152.98990621 13.76780539 134.48956647 13.81074712 C115.47553214 13.85454475 96.46163739 13.87237422 77.44755298 13.86197114 C66.77975347 13.85657202 56.11219311 13.8612469 45.44443321 13.89293671 C36.36249021 13.91960937 27.2809455 13.92156851 18.19900449 13.89207563 C13.56920598 13.87770177 8.94012556 13.87436069 4.31036949 13.90172958 C0.06412474 13.926528 -4.18079706 13.9184593 -8.42697253 13.88522866 C-9.95514412 13.87884787 -11.48342205 13.88403206 -13.01149444 13.90257618 C-24.0463469 14.02696626 -31.61460672 11.6509428 -41 6 C-41 5.67 -41 5.34 -41 5 C-25.16 4.67 -9.32 4.34 7 4 C4.69 3.01 2.38 2.02 0 1 C0 0.67 0 0.34 0 0 Z " fill="#AFA223" transform="translate(474,900)"/>
<path d="M0 0 C1.18567808 -0.00297112 2.37135616 -0.00594224 3.59296387 -0.0090034 C6.87166536 -0.0161599 10.15033484 -0.01886087 13.42904294 -0.01960087 C16.97054381 -0.02145811 20.51203348 -0.029009 24.05352783 -0.03573608 C31.79374292 -0.0492952 39.53395281 -0.05534091 47.27417779 -0.05974674 C52.11421521 -0.0625144 56.95425065 -0.06675281 61.79428673 -0.07125092 C75.21366023 -0.08344256 88.63303216 -0.09374069 102.05241108 -0.09712601 C103.33981386 -0.09745536 103.33981386 -0.09745536 104.65322478 -0.09779136 C105.51347462 -0.09800964 106.37372447 -0.09822791 107.26004249 -0.09845281 C109.00304814 -0.09889626 110.7460538 -0.09934282 112.48905945 -0.09979248 C113.78592857 -0.10012463 113.78592857 -0.10012463 115.10899707 -0.10046348 C129.0964458 -0.10440561 143.08384224 -0.12184219 157.0712708 -0.145152 C171.45663926 -0.16892989 185.84198156 -0.18133085 200.22736996 -0.18249393 C208.29410887 -0.18340731 216.36077973 -0.18907377 224.42749977 -0.20731354 C231.30137151 -0.22280196 238.17515416 -0.22778408 245.04904006 -0.21957543 C248.54902132 -0.215699 252.04882371 -0.21644876 255.54878235 -0.23063278 C275.40348825 -0.29741222 293.20494556 1.12625744 312.19389343 7.14044189 C312.19389343 7.47044189 312.19389343 7.80044189 312.19389343 8.14044189 C195.04389343 8.14044189 77.89389343 8.14044189 -42.80610657 8.14044189 C-39.98781007 6.26157756 -38.37718746 5.64146966 -35.16548157 4.88653564 C-34.25927063 4.67190674 -33.35305969 4.45727783 -32.41938782 4.23614502 C-31.474505 4.01893799 -30.52962219 3.80173096 -29.55610657 3.57794189 C-28.6266925 3.35686768 -27.69727844 3.13579346 -26.73970032 2.90802002 C-17.66129132 0.78287619 -9.31716121 -0.00731603 0 0 Z " fill="#C6C346" transform="translate(504.8061065673828,353.85955810546875)"/>
<path d="M0 0 C1.98 0.495 1.98 0.495 4 1 C-11.44366097 10.67243902 -23.17226089 12.16938195 -41.34315491 12.11352539 C-42.62142495 12.11367425 -43.89969499 12.11382311 -45.21670049 12.11397648 C-48.7255101 12.11426897 -52.23428504 12.10838185 -55.7430867 12.10140657 C-59.54187754 12.09498363 -63.34066989 12.09445967 -67.13946533 12.0932312 C-73.70903636 12.0903558 -80.27859602 12.08393554 -86.8481617 12.07516479 C-96.35080591 12.06257136 -105.85344597 12.0565252 -115.35609715 12.05223143 C-130.78224192 12.04517801 -146.20838141 12.0343851 -161.63452148 12.02050781 C-162.55620192 12.01968 -163.47788235 12.01885219 -164.42749249 12.01799929 C-170.97249508 12.01209663 -177.51749755 12.00606083 -184.0625 12 C-191.55460603 11.99306653 -199.04671212 11.9862014 -206.53881836 11.97949219 C-207.92373627 11.97825 -207.92373627 11.97825 -209.33663232 11.97698271 C-224.71879047 11.96330778 -240.10094871 11.95354405 -255.48311132 11.94658184 C-264.9662857 11.94209851 -274.44944452 11.93405412 -283.93261164 11.92143703 C-290.42123097 11.91302561 -296.9098467 11.90812386 -303.39847112 11.90601182 C-307.14378375 11.90466426 -310.88907625 11.90163917 -314.63438225 11.89425278 C-318.68949692 11.88628522 -322.74457543 11.88599713 -326.79969788 11.88647461 C-327.98926387 11.88287965 -329.17882987 11.87928469 -330.40444332 11.87558079 C-331.48772646 11.87695514 -332.57100959 11.87832949 -333.68711948 11.87974548 C-334.62329784 11.87882369 -335.5594762 11.8779019 -336.52402359 11.87695217 C-338.97605735 11.91670474 -338.97605735 11.91670474 -341.19143003 12.55829716 C-343.88840189 13.21697233 -345.47509211 12.09030113 -348 11 C-349.8871875 10.566875 -349.8871875 10.566875 -351.8125 10.125 C-356.26881947 9.07245978 -359.97294733 7.15734965 -364 5 C-364 4.67 -364 4.34 -364 4 C-363.1856683 4.00056958 -363.1856683 4.00056958 -362.35488546 4.00115067 C-329.71593856 4.02384368 -297.07699386 4.0408413 -264.43804082 4.05106533 C-260.4630884 4.05231509 -256.48813599 4.05360951 -252.51318359 4.05493164 C-251.72229507 4.05519395 -250.93140655 4.05545626 -250.11655171 4.05572652 C-239.08334604 4.05947787 -228.05014404 4.06561796 -217.01694074 4.0737354 C-130.12823113 4.18557982 -130.12823113 4.18557982 -43.24236345 3.59018397 C-40.50542098 3.55892336 -37.76846547 3.52909912 -35.03150558 3.49940681 C-30.88195473 3.45350143 -26.732519 3.40184172 -22.58310843 3.344661 C-21.1069295 3.3247046 -19.6307315 3.3061035 -18.1545167 3.28900599 C-16.17583666 3.26541022 -14.19724054 3.23506069 -12.21865845 3.20433044 C-11.1283967 3.18897468 -10.03813496 3.17361891 -8.91483498 3.15779781 C-6.15324172 3.00829591 -3.66269187 2.74990925 -1 2 C-0.67 1.34 -0.34 0.68 0 0 Z " fill="#8D1F1D" transform="translate(823,873)"/>
<path d="M0 0 C-7.34169424 5.95037866 -14.3995515 5.70663028 -23.43058777 5.63491821 C-25.00961162 5.6406833 -26.58862876 5.64862703 -28.16763192 5.65855443 C-32.49548874 5.67939732 -36.8227932 5.66912446 -41.15065181 5.65362334 C-45.82212658 5.64230352 -50.49350682 5.65977549 -55.16496277 5.67352295 C-64.31106447 5.69575157 -73.45696097 5.69095628 -82.6030707 5.67645974 C-90.03468158 5.66516811 -97.46623495 5.66363627 -104.89785194 5.66907883 C-105.9555124 5.66984499 -107.01317286 5.67061116 -108.10288364 5.67140054 C-110.25145673 5.67299916 -112.4000298 5.67462022 -114.54860286 5.6762635 C-134.69279435 5.69051936 -154.83687204 5.67412971 -174.98104487 5.64726166 C-192.27216953 5.62491333 -209.5631264 5.62881122 -226.85424805 5.65185547 C-246.93097059 5.67859958 -267.00759347 5.68915632 -287.08433133 5.67379415 C-289.22408599 5.67220138 -291.36384066 5.67062953 -293.50359535 5.66907883 C-294.55642201 5.66830745 -295.60924867 5.66753607 -296.69397917 5.66674132 C-304.11968684 5.66242088 -311.54533138 5.66971808 -318.97102928 5.68147659 C-328.01591982 5.69548426 -337.06059334 5.69173777 -346.10545894 5.66507287 C-350.72183792 5.65191282 -355.33785478 5.64681959 -359.95423126 5.66331863 C-364.17770972 5.67818551 -368.40048936 5.6700846 -372.62390415 5.64343087 C-374.15401945 5.63783208 -375.68419344 5.64071765 -377.21427121 5.65280981 C-379.29078336 5.66796544 -381.36488647 5.6524801 -383.44127178 5.6292057 C-384.59546193 5.62839394 -385.74965207 5.62758218 -386.93881768 5.62674582 C-390.90107653 4.81551378 -392.42646767 3.02984925 -395 0 C-345.11259829 -0.15030827 -295.22518365 -0.29533735 -245.33774604 -0.4332476 C-239.45327264 -0.44951935 -233.56879937 -0.46583498 -227.68432617 -0.48217773 C-226.51279211 -0.48543066 -225.34125805 -0.48868358 -224.13422296 -0.49203508 C-205.14405267 -0.54486865 -186.15389452 -0.60126041 -167.16373845 -0.6589582 C-147.69022996 -0.7180457 -128.21671337 -0.77333019 -108.74318391 -0.82505554 C-96.71888938 -0.85711505 -84.69461115 -0.89217066 -72.67033658 -0.93101191 C-64.43421417 -0.95733289 -56.19808687 -0.97997288 -47.96194597 -0.99967117 C-43.20421081 -1.01116037 -38.44649506 -1.02431753 -33.68877792 -1.04183006 C-29.33827961 -1.05780801 -24.98779503 -1.06919309 -20.6372743 -1.07683109 C-19.05849149 -1.08043052 -17.47971154 -1.0857563 -15.90094092 -1.09292836 C-13.76432501 -1.10238915 -11.62778682 -1.10571381 -9.49115276 -1.10743046 C-8.30148897 -1.11084794 -7.11182517 -1.11426542 -5.88611096 -1.11778647 C-3 -1 -3 -1 0 0 Z " fill="#C73130" transform="translate(838,867)"/>
<path d="M0 0 C125.73 0 251.46 0 381 0 C375.56275728 4.07793204 371.38503622 5.24855749 364.65177536 5.25726891 C363.38849025 5.2637178 362.12520515 5.27016669 360.82363868 5.276811 C359.42936141 5.27386899 358.03508455 5.27073357 356.64080811 5.26742554 C355.15370142 5.27116318 353.6665967 5.27576516 352.1794951 5.28115618 C348.09636662 5.29338762 344.01332007 5.29312554 339.93017745 5.29076743 C335.52512967 5.2903593 331.12010817 5.3013981 326.71507263 5.31088257 C318.08578185 5.32749455 309.45651839 5.33299221 300.82721296 5.33410732 C293.81227712 5.33505774 286.79735029 5.33916774 279.7824173 5.34550858 C259.89167049 5.36312186 240.00094526 5.37234736 220.1101906 5.37084763 C219.03790485 5.37076772 217.9656191 5.3706878 216.86083984 5.37060547 C215.78724402 5.37052371 214.71364821 5.37044195 213.60751918 5.37035771 C196.20996311 5.36954488 178.81249364 5.38868157 161.41496262 5.4168822 C143.54922215 5.44561314 125.68352391 5.45942237 107.81775975 5.45769465 C97.78834836 5.4570308 87.75902773 5.46252084 77.72963715 5.48405075 C69.18993112 5.50226533 60.650357 5.50660763 52.11063996 5.4930319 C47.75494391 5.48650354 43.39950091 5.48638022 39.04382896 5.5037384 C35.05264486 5.51948019 31.0619142 5.51659443 27.07074109 5.49917014 C25.63064234 5.49610265 24.19050966 5.49972321 22.75045094 5.51089029 C14.31423335 5.5719517 7.56567301 4.89736618 0 1 C0 0.67 0 0.34 0 0 Z " fill="#A1951C" transform="translate(449,913)"/>
<path d="M0 0 C1.09141134 3.25958421 0.9119066 5.00172169 -0.3125 8.1875 C-3.5664475 16.74300098 -4.29234702 24.83964646 -4.26069641 33.94186401 C-4.26452196 35.11785569 -4.26834751 36.29384737 -4.27228898 37.50547516 C-4.28078495 40.7476049 -4.28039959 43.9895887 -4.27610838 47.23172212 C-4.27363234 50.73693152 -4.28266619 54.24211476 -4.29014587 57.74731445 C-4.30287052 64.60586497 -4.30468936 71.4643763 -4.30234561 78.32293664 C-4.3005598 83.89995866 -4.30231772 89.47696881 -4.30657005 95.05398941 C-4.30716524 95.84889809 -4.30776043 96.64380676 -4.30837366 97.46280358 C-4.30958546 99.07786273 -4.31079959 100.69292188 -4.31201603 102.30798103 C-4.32288294 117.44112992 -4.32073309 132.57425651 -4.31463119 147.70740665 C-4.30946267 161.53779801 -4.32071726 175.36811891 -4.33972941 189.19849633 C-4.35912255 203.41552704 -4.36736122 217.63252446 -4.36360615 231.84956849 C-4.36169637 239.82494623 -4.36415999 247.80026402 -4.37832069 255.77563095 C-4.39025429 262.56512029 -4.39161725 269.35451277 -4.37953053 276.1440035 C-4.37365571 279.60464711 -4.3725034 283.06511373 -4.38453293 286.52574539 C-4.39500619 290.28538292 -4.38689427 294.04454795 -4.3742218 297.8041687 C-4.38159609 298.88658148 -4.38897037 299.96899425 -4.39656812 301.08420742 C-4.33338294 310.02353684 -2.39506848 317.75902527 1 326 C0.34 326.33 -0.32 326.66 -1 327 C-1.78593373 324.83790562 -2.55314484 322.67145115 -3.3125 320.5 C-3.74175781 319.2934375 -4.17101562 318.086875 -4.61328125 316.84375 C-9.29567183 301.41029793 -9.43121206 286.40099424 -9.38818359 270.40258789 C-9.39225564 267.84656043 -9.39760106 265.29053473 -9.40411377 262.73451233 C-9.4163102 256.54797906 -9.41461231 250.36158932 -9.40587585 244.17505438 C-9.39906462 239.14077157 -9.39819733 234.10651931 -9.4014473 229.0722332 C-9.401907 228.35216468 -9.40236669 227.63209617 -9.40284032 226.89020739 C-9.40379963 225.42679536 -9.40477227 223.96338334 -9.4057581 222.49997132 C-9.41428676 208.81825552 -9.404518 195.13660028 -9.388357 181.45489442 C-9.37495898 169.75057964 -9.37728256 158.04635418 -9.39111328 146.34204102 C-9.40721888 132.70648353 -9.41346002 119.07097897 -9.40427649 105.4354133 C-9.40332098 103.97746973 -9.40237786 102.51952615 -9.4014473 101.06158257 C-9.40098447 100.34449758 -9.40052164 99.6274126 -9.40004479 98.88859778 C-9.39746957 93.86895163 -9.40179401 88.84933945 -9.40888596 83.82969856 C-9.41824761 77.05550381 -9.41144908 70.28150201 -9.39420319 63.50731468 C-9.39026296 61.03271893 -9.39132968 58.5581089 -9.39799118 56.08351898 C-9.43839925 39.53737562 -8.73753748 23.82279577 -3.375 8 C-3.1584375 7.32195312 -2.941875 6.64390625 -2.71875 5.9453125 C-1.16308594 1.16308594 -1.16308594 1.16308594 0 0 Z " fill="#7E2322" transform="translate(394,475)"/>
<path d="M0 0 C-10.00275062 5.35030847 -22.28792523 4.1475087 -33.34315491 4.11352539 C-34.62142495 4.11367425 -35.89969499 4.11382311 -37.21670049 4.11397648 C-40.7255101 4.11426897 -44.23428504 4.10838185 -47.7430867 4.10140657 C-51.54187754 4.09498363 -55.34066989 4.09445967 -59.13946533 4.0932312 C-65.70903636 4.0903558 -72.27859602 4.08393554 -78.8481617 4.07516479 C-88.35080591 4.06257136 -97.85344597 4.0565252 -107.35609715 4.05223143 C-122.78224192 4.04517801 -138.20838141 4.0343851 -153.63452148 4.02050781 C-154.55620192 4.01968 -155.47788235 4.01885219 -156.42749249 4.01799929 C-162.97249508 4.01209663 -169.51749755 4.00606083 -176.0625 4 C-183.55460603 3.99306653 -191.04671212 3.9862014 -198.53881836 3.97949219 C-199.92373627 3.97825 -199.92373627 3.97825 -201.33663232 3.97698271 C-216.71879047 3.96330778 -232.10094871 3.95354405 -247.48311132 3.94658184 C-256.9662857 3.94209851 -266.44944452 3.93405412 -275.93261164 3.92143703 C-282.42123097 3.91302561 -288.9098467 3.90812386 -295.39847112 3.90601182 C-299.14378375 3.90466426 -302.88907625 3.90163917 -306.63438225 3.89425278 C-310.68949692 3.88628522 -314.74457543 3.88599713 -318.79969788 3.88647461 C-319.98926387 3.88287965 -321.17882987 3.87928469 -322.40444332 3.87558079 C-323.48772646 3.87695514 -324.57100959 3.87832949 -325.68711948 3.87974548 C-326.62329784 3.87882369 -327.5594762 3.8779019 -328.52402359 3.87695217 C-330.97605735 3.91670474 -330.97605735 3.91670474 -333.19143003 4.55829716 C-335.88840189 5.21697233 -337.47509211 4.09030113 -340 3 C-342.65304053 2.26386771 -345.32028997 1.6358634 -348 1 C-348 0.67 -348 0.34 -348 0 C-346.93119045 0.00056958 -346.93119045 0.00056958 -345.84078878 0.00115067 C-303.62047719 0.02352326 -261.40016628 0.04068379 -219.17984995 0.05106533 C-214.11168055 0.05231605 -209.04351117 0.05361037 -203.9753418 0.05493164 C-202.96635018 0.05519395 -201.95735856 0.05545626 -200.91779143 0.05572652 C-184.57513965 0.06007916 -168.23249137 0.06796449 -151.88984167 0.0771528 C-135.1238141 0.0865006 -118.35778838 0.092058 -101.59175831 0.09408849 C-91.24421996 0.09546137 -80.89669155 0.09979931 -70.54915626 0.10791647 C-63.4558098 0.1131978 -56.36246849 0.11480112 -49.26912021 0.11350138 C-45.17518252 0.11286018 -41.08126219 0.11385097 -36.98732758 0.11920547 C-33.23861204 0.12407268 -29.48992555 0.12431678 -25.74120868 0.12089889 C-23.74416467 0.12027652 -21.74712101 0.12458851 -19.75008196 0.12908131 C-12.76573453 0.15105922 -12.76573453 0.15105922 -5.83290195 -0.57001591 C-3 -1 -3 -1 0 0 Z " fill="#741918" transform="translate(815,881)"/>
<path d="M0 0 C122.76 0 245.52 0 372 0 C367.7854715 2.80968567 364.96583205 3.12543788 360.00695229 3.12863445 C358.74655683 3.1318589 357.48616138 3.13508335 356.18757212 3.1384055 C354.78102332 3.13693422 353.37447462 3.13536649 351.96792603 3.13371277 C350.4798468 3.13557996 348.99176807 3.13788029 347.50369012 3.14057809 C343.40414751 3.1467139 339.30462524 3.14656041 335.20507908 3.14538372 C330.78781378 3.14518016 326.37055509 3.15069416 321.95329285 3.15544128 C313.29519255 3.16375813 304.63709906 3.16649659 295.9789951 3.16705366 C288.94344788 3.16752833 281.90790292 3.16958061 274.87235641 3.17275429 C254.93856028 3.18156366 235.00476954 3.18617322 215.07097144 3.18542381 C213.99567587 3.18538386 212.92038029 3.1853439 211.8125 3.18530273 C210.73589612 3.18526185 209.65929225 3.18522097 208.55006401 3.18517885 C191.09723513 3.1847723 173.64442781 3.19434355 156.19160517 3.2084411 C138.284178 3.22279207 120.37676135 3.22971199 102.46932828 3.22884732 C92.41043715 3.22851491 82.35156862 3.23128128 72.29268265 3.24202538 C63.72900261 3.25111357 55.16535543 3.25331951 46.60167266 3.24651595 C42.23048422 3.24324223 37.85935886 3.24322466 33.48817635 3.2518692 C29.48861491 3.25969763 25.48916699 3.25834046 21.48960845 3.24958507 C20.04076226 3.24804198 18.59190775 3.2498965 17.14307137 3.25544515 C15.17696894 3.26247757 13.21083202 3.25603311 11.24473 3.24888897 C9.60506875 3.24921502 9.60506875 3.24921502 7.93228304 3.24954766 C4.92031556 2.99321857 2.72601403 2.272031 0 1 C0 0.67 0 0.34 0 0 Z " fill="#948818" transform="translate(454,915)"/>
<path d="M0 0 C3.25073222 3.74974813 5.47156682 7.62936723 7.5 12.125 C7.80260742 12.78661133 8.10521484 13.44822266 8.41699219 14.12988281 C18.30873011 36.04437616 20.30142044 56.50250304 20.2746582 80.25683594 C20.27901062 82.81242013 20.28419553 85.36800301 20.29014587 87.92358398 C20.3021079 94.12052447 20.30469406 100.31740515 20.30234561 106.51435491 C20.30055533 111.55728651 20.30232723 116.60020503 20.30657005 121.64313507 C20.30746284 122.72384755 20.30746284 122.72384755 20.30837366 123.82639261 C20.30958554 125.29052923 20.31079967 126.75466586 20.31201603 128.21880248 C20.32286873 141.9205188 20.32074002 155.62221046 20.31463119 169.32392815 C20.30946557 181.8243769 20.32071213 194.32474765 20.33972941 206.82518098 C20.35916069 219.69765324 20.36735447 232.57008869 20.36360615 245.44257569 C20.36170192 252.65461181 20.36410514 259.86658159 20.37832069 267.07860565 C20.39156335 273.86506279 20.38890306 280.65133956 20.37590981 287.43780518 C20.37355633 289.91723942 20.37623418 292.39668479 20.38453293 294.87610626 C20.43950266 312.58747249 19.18581895 328.69270037 13.5625 345.625 C13.13227539 346.99591797 13.13227539 346.99591797 12.69335938 348.39453125 C10.97823691 353.68887364 8.94457015 358.27574459 6 363 C5 361 5 361 5.6015625 359.14453125 C5.93929687 358.37496094 6.27703125 357.60539062 6.625 356.8125 C15.85767002 334.46307119 18.60607598 313.29649216 18.51757812 289.24975586 C18.52301253 286.73726499 18.53014251 284.2247773 18.53881836 281.71229553 C18.55502918 275.65038865 18.55284456 269.58875802 18.5411678 263.52686255 C18.53206336 258.59235545 18.53093939 253.65790371 18.53526306 248.72339058 C18.53587599 248.01596713 18.53648893 247.30854367 18.53712043 246.57968314 C18.53839958 245.14172397 18.53969643 243.70376481 18.5410108 242.26580567 C18.55236418 228.84338748 18.53938539 215.4210793 18.51780933 201.99867917 C18.49993922 190.52730341 18.50305193 179.05608965 18.52148438 167.5847168 C18.54297769 154.20251594 18.5512701 140.820411 18.53903532 127.43819529 C18.53776137 126.00639476 18.53650388 124.57459421 18.53526306 123.14279366 C18.53464596 122.43866219 18.53402886 121.73453073 18.53339306 121.00906194 C18.5299657 116.09044375 18.53571133 111.17188735 18.54518127 106.25327873 C18.55768932 99.61195149 18.54855719 92.9708795 18.52560425 86.32956505 C18.52036331 83.90782928 18.52175056 81.48606756 18.53065491 79.0643425 C18.61466687 53.87252668 14.52422797 30.41884387 2.54003906 8.03613281 C0 3.2757279 0 3.2757279 0 0 Z " fill="#772625" transform="translate(874,453)"/>
<path d="M0 0 C4.60704135 0.69070017 9.06955247 1.7252604 13.5625 2.9375 C14.20896484 3.10701172 14.85542969 3.27652344 15.52148438 3.45117188 C19.12530309 4.41536752 22.57009334 5.53192095 26 7 C25.67 7.66 25.34 8.32 25 9 C17.28066588 9.06964741 9.56136453 9.12288592 1.84178734 9.15543652 C-1.74312092 9.17106279 -5.3278135 9.1922448 -8.91259766 9.22631836 C-12.37502525 9.25902129 -15.83724596 9.27687586 -19.29981613 9.28463173 C-21.2573708 9.29283593 -23.21484276 9.31623793 -25.17227173 9.33988953 C-26.37306366 9.34011612 -27.57385559 9.34034271 -28.81103516 9.34057617 C-29.86360504 9.34723801 -30.91617493 9.35389984 -32.00064087 9.36076355 C-35.50808968 8.93888687 -37.94401512 7.72927652 -41 6 C-41 5.67 -41 5.34 -41 5 C-25.16 4.67 -9.32 4.34 7 4 C4.69 3.01 2.38 2.02 0 1 C0 0.67 0 0.34 0 0 Z " fill="#C1B329" transform="translate(474,900)"/>
<path d="M0 0 C0 0.66 0 1.32 0 2 C15.84 2 31.68 2 48 2 C43.70107195 5.22419604 42.92660693 5.3715037 37.85449219 5.34057617 C36.61350769 5.34034958 35.37252319 5.34012299 34.09393311 5.33988953 C32.74491005 5.32457089 31.39589069 5.30892293 30.046875 5.29296875 C28.6625413 5.28737075 27.27820164 5.28310161 25.89385986 5.28010559 C22.25723753 5.26867272 18.62097689 5.23921946 14.98449707 5.20599365 C11.27096448 5.17525887 7.55737323 5.16159301 3.84375 5.14648438 C-3.43766456 5.11434782 -10.71878153 5.06317087 -18 5 C-17.37867188 4.69191406 -16.75734375 4.38382813 -16.1171875 4.06640625 C-14.77027889 3.3879818 -13.43709688 2.68102157 -12.125 1.9375 C-8.15979542 0.18814504 -4.29444776 0 0 0 Z " fill="#C8B92A" transform="translate(799,903)"/>
<path d="M0 0 C0.33 0 0.66 0 1 0 C1.39334753 7.36770187 0.08390113 13.16140111 -2.25 20.125 C-2.55035156 21.07503906 -2.85070312 22.02507813 -3.16015625 23.00390625 C-4.92747024 28.42617599 -6.97304702 33.16491139 -10 38 C-11 36 -11 36 -10.3984375 34.14453125 C-10.06070313 33.37496094 -9.72296875 32.60539063 -9.375 31.8125 C-5.07962622 21.49167134 -1.54707024 11.10657886 0 0 Z " fill="#862C2C" transform="translate(890,778)"/>
<path d="M0 0 C1.02389372 3.13436855 0.98672733 4.81127996 -0.1875 7.875 C-1.70084694 12.05772279 -2.98246377 16.2823758 -4.1875 20.5625 C-4.53167969 21.78066406 -4.87585938 22.99882812 -5.23046875 24.25390625 C-5.48441406 25.16011719 -5.73835938 26.06632812 -6 27 C-6.33 27 -6.66 27 -7 27 C-7.28664818 21.29720988 -6.31204692 16.68077462 -4.625 11.25 C-4.40328125 10.49589844 -4.1815625 9.74179687 -3.953125 8.96484375 C-2.9394372 5.60774826 -1.95703854 2.9355578 0 0 Z " fill="#6E2A2A" transform="translate(394,475)"/>
<path d="M0 0 C1.32 0.33 2.64 0.66 4 1 C2.7636832 1.89422914 1.51028438 2.76487891 0.25 3.625 C-0.44609375 4.11226562 -1.1421875 4.59953125 -1.859375 5.1015625 C-4 6 -4 6 -6.265625 5.1484375 C-6.83796875 4.76945313 -7.4103125 4.39046875 -8 4 C-6.865625 3.71125 -5.73125 3.4225 -4.5625 3.125 C-3.386875 2.75375 -2.21125 2.3825 -1 2 C-0.67 1.34 -0.34 0.68 0 0 Z " fill="#872827" transform="translate(823,873)"/>
<path d="M0 0 C4.60209225 -0.17700355 6.78370866 -0.10814567 11 2 C6.545 2.495 6.545 2.495 2 3 C1.34 2.01 0.68 1.02 0 0 Z " fill="#A99C28" transform="translate(497,906)"/>
<path d="M0 0 C-6.625 3 -6.625 3 -10 3 C-9.67 2.01 -9.34 1.02 -9 0 C-3.375 -1.125 -3.375 -1.125 0 0 Z " fill="#6A1E1D" transform="translate(815,881)"/>
</svg>
